<mxfile host="app.diagrams.net" modified="2023-07-03T18:08:01.447Z" agent="Mozilla/5.0 (Windows NT 10.0; Win64; x64) AppleWebKit/537.36 (KHTML, like Gecko) Chrome/114.0.0.0 Safari/537.36 Edg/114.0.1823.67" etag="a0K8SfG9gp5lvG1pOfYF" version="21.5.2" type="github">
  <diagram name="Page-1" id="_UfsLhXvg-tVtuXCiWVo">
    <mxGraphModel dx="996" dy="1641" grid="1" gridSize="10" guides="1" tooltips="1" connect="1" arrows="1" fold="1" page="1" pageScale="1" pageWidth="850" pageHeight="1100" math="0" shadow="0">
      <root>
        <mxCell id="0" />
        <mxCell id="1" parent="0" />
        <mxCell id="eK3YNaicD_HVtkdeoB8g-32" value="Processus d&#39;inscription en ligne" style="shape=umlFrame;whiteSpace=wrap;html=1;pointerEvents=0;width=200;height=40;" vertex="1" parent="1">
          <mxGeometry x="30" y="-730" width="960" height="920" as="geometry" />
        </mxCell>
        <mxCell id="eK3YNaicD_HVtkdeoB8g-33" value="&lt;div style=&quot;text-align: center; box-sizing: border-box; width: 100%; background: rgb(228, 228, 228); padding: 2px; font-size: 14px;&quot;&gt;&lt;font style=&quot;font-size: 14px;&quot;&gt;Customer&lt;/font&gt;&lt;/div&gt;&lt;table style=&quot;width: 100%; font-size: 14px;&quot; cellpadding=&quot;2&quot; cellspacing=&quot;0&quot;&gt;&lt;tbody&gt;&lt;tr&gt;&lt;td&gt;&lt;font style=&quot;font-size: 14px;&quot;&gt;&lt;br&gt;&lt;/font&gt;&lt;/td&gt;&lt;td&gt;&lt;font style=&quot;font-size: 14px;&quot;&gt;&lt;br&gt;&lt;/font&gt;&lt;/td&gt;&lt;/tr&gt;&lt;tr&gt;&lt;td&gt;&lt;font style=&quot;font-size: 14px;&quot;&gt;&lt;br&gt;&lt;/font&gt;&lt;/td&gt;&lt;td&gt;&lt;font style=&quot;font-size: 14px;&quot;&gt;&lt;br&gt;&lt;/font&gt;&lt;/td&gt;&lt;/tr&gt;&lt;tr&gt;&lt;td&gt;&lt;/td&gt;&lt;td&gt;&lt;font style=&quot;font-size: 14px;&quot;&gt;&lt;br&gt;&lt;/font&gt;&lt;/td&gt;&lt;/tr&gt;&lt;/tbody&gt;&lt;/table&gt;" style="verticalAlign=top;align=left;overflow=fill;html=1;whiteSpace=wrap;" vertex="1" parent="1">
          <mxGeometry x="40" y="-660" width="250" height="170" as="geometry" />
        </mxCell>
        <mxCell id="eK3YNaicD_HVtkdeoB8g-34" value="&lt;div style=&quot;text-align: center; box-sizing: border-box; width: 100%; background: rgb(228, 228, 228); padding: 2px;&quot;&gt;Systeme&lt;/div&gt;&lt;table style=&quot;width:100%;font-size:1em;&quot; cellpadding=&quot;2&quot; cellspacing=&quot;0&quot;&gt;&lt;tbody&gt;&lt;tr&gt;&lt;td&gt;&lt;br&gt;&lt;/td&gt;&lt;td&gt;&lt;br&gt;&lt;/td&gt;&lt;/tr&gt;&lt;tr&gt;&lt;td&gt;&lt;br&gt;&lt;/td&gt;&lt;td&gt;&lt;br&gt;&lt;/td&gt;&lt;/tr&gt;&lt;tr&gt;&lt;td&gt;&lt;/td&gt;&lt;td&gt;&lt;br&gt;&lt;/td&gt;&lt;/tr&gt;&lt;/tbody&gt;&lt;/table&gt;" style="verticalAlign=top;align=left;overflow=fill;html=1;whiteSpace=wrap;" vertex="1" parent="1">
          <mxGeometry x="320" y="-660" width="640" height="650" as="geometry" />
        </mxCell>
        <mxCell id="eK3YNaicD_HVtkdeoB8g-72" style="edgeStyle=orthogonalEdgeStyle;rounded=0;orthogonalLoop=1;jettySize=auto;html=1;entryX=0;entryY=0.5;entryDx=0;entryDy=0;fontFamily=Helvetica;fontSize=12;fontColor=default;" edge="1" parent="1" source="eK3YNaicD_HVtkdeoB8g-48" target="eK3YNaicD_HVtkdeoB8g-49">
          <mxGeometry relative="1" as="geometry" />
        </mxCell>
        <mxCell id="eK3YNaicD_HVtkdeoB8g-48" value="Saisir les informations" style="html=1;whiteSpace=wrap;strokeColor=default;fontFamily=Helvetica;fontSize=12;fontColor=default;fillColor=default;" vertex="1" parent="1">
          <mxGeometry x="110" y="-575" width="110" height="50" as="geometry" />
        </mxCell>
        <mxCell id="eK3YNaicD_HVtkdeoB8g-49" value="Vérifier les informations" style="html=1;whiteSpace=wrap;strokeColor=default;fontFamily=Helvetica;fontSize=12;fontColor=default;fillColor=default;" vertex="1" parent="1">
          <mxGeometry x="450" y="-575" width="380" height="50" as="geometry" />
        </mxCell>
        <mxCell id="eK3YNaicD_HVtkdeoB8g-62" style="edgeStyle=orthogonalEdgeStyle;rounded=0;orthogonalLoop=1;jettySize=auto;html=1;entryX=0.5;entryY=1;entryDx=0;entryDy=0;fontFamily=Helvetica;fontSize=12;fontColor=default;" edge="1" parent="1" source="eK3YNaicD_HVtkdeoB8g-51" target="eK3YNaicD_HVtkdeoB8g-48">
          <mxGeometry relative="1" as="geometry" />
        </mxCell>
        <mxCell id="eK3YNaicD_HVtkdeoB8g-70" style="edgeStyle=orthogonalEdgeStyle;rounded=0;orthogonalLoop=1;jettySize=auto;html=1;fontFamily=Helvetica;fontSize=12;fontColor=default;" edge="1" parent="1" source="eK3YNaicD_HVtkdeoB8g-54" target="eK3YNaicD_HVtkdeoB8g-48">
          <mxGeometry relative="1" as="geometry" />
        </mxCell>
        <mxCell id="eK3YNaicD_HVtkdeoB8g-54" value="" style="ellipse;fillColor=strokeColor;html=1;strokeColor=default;fontFamily=Helvetica;fontSize=12;fontColor=default;" vertex="1" parent="1">
          <mxGeometry x="150" y="-625" width="30" height="30" as="geometry" />
        </mxCell>
        <mxCell id="eK3YNaicD_HVtkdeoB8g-55" value="" style="ellipse;html=1;shape=endState;fillColor=strokeColor;strokeColor=default;fontFamily=Helvetica;fontSize=12;fontColor=default;" vertex="1" parent="1">
          <mxGeometry x="621.26" y="-70" width="37.49" height="40" as="geometry" />
        </mxCell>
        <mxCell id="eK3YNaicD_HVtkdeoB8g-79" style="edgeStyle=orthogonalEdgeStyle;rounded=0;orthogonalLoop=1;jettySize=auto;html=1;fontFamily=Helvetica;fontSize=12;fontColor=default;" edge="1" parent="1" source="eK3YNaicD_HVtkdeoB8g-61" target="eK3YNaicD_HVtkdeoB8g-55">
          <mxGeometry relative="1" as="geometry" />
        </mxCell>
        <mxCell id="eK3YNaicD_HVtkdeoB8g-61" value="Finaliser l&#39;inscription" style="html=1;whiteSpace=wrap;strokeColor=default;fontFamily=Helvetica;fontSize=12;fontColor=default;fillColor=default;" vertex="1" parent="1">
          <mxGeometry x="536.26" y="-170" width="207.5" height="50" as="geometry" />
        </mxCell>
        <mxCell id="eK3YNaicD_HVtkdeoB8g-50" value="&lt;div style=&quot;text-align: center; box-sizing: border-box; width: 100%; background: rgb(228, 228, 228); padding: 2px;&quot;&gt;Decision:&lt;/div&gt;&lt;table style=&quot;width:100%;font-size:1em;&quot; cellpadding=&quot;2&quot; cellspacing=&quot;0&quot;&gt;&lt;tbody&gt;&lt;tr&gt;&lt;td&gt;&lt;br&gt;&lt;/td&gt;&lt;td&gt;&lt;br&gt;&lt;/td&gt;&lt;/tr&gt;&lt;tr&gt;&lt;td&gt;&lt;br&gt;&lt;/td&gt;&lt;td&gt;&lt;br&gt;&lt;/td&gt;&lt;/tr&gt;&lt;tr&gt;&lt;td&gt;&lt;/td&gt;&lt;td&gt;&lt;br&gt;&lt;/td&gt;&lt;/tr&gt;&lt;/tbody&gt;&lt;/table&gt;" style="verticalAlign=top;align=left;overflow=fill;html=1;whiteSpace=wrap;" vertex="1" parent="1">
          <mxGeometry x="340" y="-460" width="600" height="270" as="geometry" />
        </mxCell>
        <mxCell id="eK3YNaicD_HVtkdeoB8g-51" value="Mauvais message" style="html=1;whiteSpace=wrap;strokeColor=default;fontFamily=Helvetica;fontSize=12;fontColor=default;fillColor=default;" vertex="1" parent="1">
          <mxGeometry x="350" y="-310" width="150" height="50" as="geometry" />
        </mxCell>
        <mxCell id="eK3YNaicD_HVtkdeoB8g-78" style="edgeStyle=orthogonalEdgeStyle;rounded=0;orthogonalLoop=1;jettySize=auto;html=1;entryX=0.5;entryY=0;entryDx=0;entryDy=0;fontFamily=Helvetica;fontSize=12;fontColor=default;" edge="1" parent="1" source="eK3YNaicD_HVtkdeoB8g-53" target="eK3YNaicD_HVtkdeoB8g-61">
          <mxGeometry relative="1" as="geometry" />
        </mxCell>
        <mxCell id="eK3YNaicD_HVtkdeoB8g-53" value="Vérifier le compte" style="html=1;whiteSpace=wrap;strokeColor=default;fontFamily=Helvetica;fontSize=12;fontColor=default;fillColor=default;" vertex="1" parent="1">
          <mxGeometry x="540.63" y="-310" width="198.75" height="50" as="geometry" />
        </mxCell>
        <mxCell id="eK3YNaicD_HVtkdeoB8g-76" style="edgeStyle=orthogonalEdgeStyle;rounded=0;orthogonalLoop=1;jettySize=auto;html=1;entryX=0.5;entryY=0;entryDx=0;entryDy=0;fontFamily=Helvetica;fontSize=12;fontColor=default;" edge="1" parent="1" source="eK3YNaicD_HVtkdeoB8g-56" target="eK3YNaicD_HVtkdeoB8g-51">
          <mxGeometry relative="1" as="geometry" />
        </mxCell>
        <mxCell id="eK3YNaicD_HVtkdeoB8g-77" style="edgeStyle=orthogonalEdgeStyle;rounded=0;orthogonalLoop=1;jettySize=auto;html=1;entryX=0.5;entryY=0;entryDx=0;entryDy=0;fontFamily=Helvetica;fontSize=12;fontColor=default;" edge="1" parent="1" source="eK3YNaicD_HVtkdeoB8g-56" target="eK3YNaicD_HVtkdeoB8g-53">
          <mxGeometry relative="1" as="geometry" />
        </mxCell>
        <mxCell id="eK3YNaicD_HVtkdeoB8g-56" value="" style="rhombus;whiteSpace=wrap;html=1;strokeColor=default;fontFamily=Helvetica;fontSize=12;fontColor=default;fillColor=default;" vertex="1" parent="1">
          <mxGeometry x="610" y="-430" width="60" height="60" as="geometry" />
        </mxCell>
        <mxCell id="eK3YNaicD_HVtkdeoB8g-75" style="edgeStyle=orthogonalEdgeStyle;rounded=0;orthogonalLoop=1;jettySize=auto;html=1;fontFamily=Helvetica;fontSize=12;fontColor=default;" edge="1" parent="1" source="eK3YNaicD_HVtkdeoB8g-49" target="eK3YNaicD_HVtkdeoB8g-56">
          <mxGeometry relative="1" as="geometry" />
        </mxCell>
      </root>
    </mxGraphModel>
  </diagram>
</mxfile>
